<?xml version="1.0" encoding="UTF-8"?><svg id="a" xmlns="http://www.w3.org/2000/svg" width="137.74" height="60" viewBox="0 0 137.74 60"><g id="b"><g id="c"><path d="M91.62,39.22h-2.67v.83h7.97v-.83h-2.15v-13.9c-.66,.69-1.72,.75-2.78,.75h-2.64v.8h2.26v12.36" fill="#14487e"/><path d="M41.19,39.22h-2.67v.83h7.97v-.83h-2.15v-13.9c-.66,.69-1.72,.75-2.78,.75h-2.64v.8h2.24v12.36" fill="#14487e"/><path d="M100.82,39.22h-2.55v.83h8.08v-.83h-2.32v-12.33h5.7v12.33h-2.15v.83h7.88v-.83h-2.52v-13.9c-.66,.69-1.83,.75-2.9,.75h-6.02v-4.64c0-3.1,1.15-5.59,4.7-5.59,1.4,0,2.44,.57,2.44,1.18,0,.4-.34,.52-.63,.69-.51,.24-.83,.76-.83,1.32,0,.89,.86,1.46,1.58,1.46,1.09,0,1.86-.86,1.86-2.12,0-1.49-1.52-3.35-4.73-3.35-5.59,0-7.6,4.53-7.6,8.83v2.24h-2.9v.8h2.9v12.36" fill="#14487e"/><path d="M16.31,29.84c3.47,.72,5.02,2.81,5.02,5.07,0,2.61-2.09,4.73-5.27,4.73s-6.42-2.67-6.91-8.03h-.89v8.63h.89c.06-.57,.32-1,1-1,1.29,0,2.67,1.35,5.99,1.35,4.82,0,7.45-2.92,7.45-7.37,0-3.5-1.75-6.08-6.36-7.22l-1.78-.4c-4.07-.95-5.27-2.81-5.27-4.73,0-2.61,2.04-4.39,4.47-4.39,3.84,0,6.11,3.1,6.56,6.97h.95v-7.17h-.86c-.09,.46-.32,.89-1,.89-1.18,0-2.15-1.66-5.73-1.66s-6.42,2.64-6.42,6.51c0,4.19,2.09,6.36,6.45,7.4l1.72,.43" fill="#14487e"/><path d="M80.78,37.41c0,2.32,1.61,3.18,3.73,3.18,2.55,0,3.38-1.4,3.78-2.26l-.66-.46c-.4,.72-1.06,1.58-2.18,1.58-.86,0-1.55-.43-1.55-1.75v-10.84h3.7v-.8h-3.7v-4.24h-.63c-.54,3.33-2.09,4.24-5.22,4.24v.8h2.67v10.55" fill="#14487e"/><path d="M70.69,39.22h2.38v-10.35c0-1.66-.89-2.32-2.06-2.32-2.09,0-3.64,1.98-4.36,2.98v9.72h2.44v.83h-8.11v-.83h2.49v-12.33h-2.49v-.8h2.64c1.61,0,2.35,0,2.95-.75v2.78h.06c.69-.83,2.32-2.78,5.13-2.78,3.01,0,4.47,1.95,4.47,4.3v9.6h2.49v.83h-8.06v-.89" fill="#14487e"/><path d="M36.72,35.43c-.34,1.81-1.81,4.04-4.27,4.04s-3.58-1.43-3.58-4.59v-3.21c0-3.1,1.15-5.33,3.76-5.33,1.55,0,2.44,.77,2.44,1.35,0,.32-.23,.52-.4,.75-.27,.27-.42,.63-.43,1,0,.72,.54,1.4,1.55,1.4,.92,0,1.69-.75,1.69-1.89,0-1.69-2.01-3.47-5.1-3.47-3.93,0-6.99,3.01-6.99,7.57,0,4.16,2.15,7.57,6.74,7.57,3.1,0,5.1-2.52,5.5-5.22h-.89" fill="#14487e"/><path d="M126.82,35.4c-.34,1.81-1.81,4.04-4.27,4.04s-3.58-1.43-3.58-4.59v-3.24c0-3.1,1.15-5.33,3.76-5.33,1.55,0,2.44,.77,2.44,1.35,0,.32-.23,.52-.4,.75-.26,.28-.41,.65-.4,1.03,0,.72,.54,1.4,1.55,1.4,.92,0,1.69-.75,1.69-1.89,0-1.69-2.01-3.47-5.13-3.47-3.93,0-6.99,3.01-6.99,7.57,0,4.16,2.15,7.57,6.71,7.57,3.1,0,5.1-2.52,5.5-5.22h-.86" fill="#14487e"/><path d="M58.97,35.37c-.37,2.04-1.86,4.1-4.21,4.1s-3.58-1.43-3.58-4.36v-3.3h8.66c.2,0,.29-.11,.29-.32v-.52c0-2.12-1.89-5.5-6.13-5.5-3.67,0-6.36,3.61-6.36,7.57,0,4.73,2.75,7.57,6.51,7.57,2.95,0,5.16-2.09,5.7-5.25h-.86Zm-2.01-4.67c0,.14-.06,.23-.23,.23h-5.45v-1.03c0-2.21,1.15-3.58,2.87-3.58s2.78,1.26,2.78,3.58v.8" fill="#14487e"/><path d="M29.21,.77h.83c3.21,0,4.93,1.81,4.93,4.07,0,3.21-2.18,4.33-4.82,4.33h-.95s0-8.4,0-8.4Zm-3.27,18.89h-2.18v.77h8.86c3.01,0,6.56-1.72,6.56-5.73,0-3.18-2.87-4.9-5.65-5.07v-.14c2.38-.2,4.76-1.72,4.76-4.87,0-2.72-2.32-4.62-6.56-4.62h-7.97V.75h2.21V19.67h-.03Zm3.27-9.75h1.55c3.24,0,5.02,2.12,5.02,4.79,0,2.9-1.75,4.96-4.73,4.96h-1.83V9.92" fill="#14487e"/><path d="M40.53,14.33c0,3.61,2.55,6.62,6.16,6.62s6.16-3.04,6.16-6.62-2.55-6.62-6.16-6.62-6.16,2.98-6.16,6.62Zm9.23,.75c0,2.52-.29,5.02-3.07,5.02s-3.07-2.49-3.07-5.02v-1.52c0-2.52,.23-5.02,3.07-5.02s3.07,2.49,3.07,5.02v1.52" fill="#14487e"/><path d="M72.21,14.33c0,3.61,2.55,6.62,6.16,6.62s6.16-3.04,6.16-6.62-2.55-6.62-6.16-6.62-6.16,2.98-6.16,6.62Zm9.23,.75c0,2.52-.32,5.02-3.07,5.02s-3.07-2.49-3.07-5.02v-1.49c0-2.52,.23-5.02,3.07-5.02s3.07,2.49,3.07,5.02v1.49" fill="#14487e"/><path d="M93.37,19.69h1.75V11.01c0-1.46-.95-2.06-1.95-2.06-1.32,0-2.67,1.26-3.3,2.61v8.14h2.15v.77h-7.45v-.77h2.35V8.97h-2.26v-.77h2.21c1.35,0,2.44,0,2.95-.66v2.38h.06c1.15-1.4,2.72-2.38,4.53-2.38,2.81,0,3.78,2.01,3.78,3.67v8.43h1.66v.77h-6.48v-.72" fill="#14487e"/><path d="M58.77,15.45c1.69,.23,2.41,1.23,2.41,2.32,0,1.52-1.23,2.35-2.61,2.35-2.64,0-3.55-2.32-3.73-3.87h-.66l.09,4.5h.66c.06-.46,.2-.66,.49-.66,.6,0,1.35,.83,3.18,.83,2.75,0,4.41-1.72,4.41-4.3,0-1.86-1.06-3.53-3.41-3.87l-1.4-.23c-1.83-.32-2.49-.95-2.49-2.04s.92-1.98,2.47-1.98c1.81,0,2.87,1.15,3.15,2.9h.63l-.06-3.55h-.57c-.03,.26-.14,.54-.43,.54-.52,0-1.23-.72-2.78-.72-2.18,0-3.87,1.52-3.87,3.67,0,2.72,1.78,3.73,3.64,3.98l.89,.11" fill="#14487e"/><path d="M71.87,18.55c-.29,.49-.92,1.23-1.83,1.23-.77,0-1.46-.34-1.46-1.58V8.97h3.3v-.77h-3.3V4.01h-.57c-.49,2.92-2.12,4.19-4.5,4.19v.77h2.09v9.2c0,2.01,1.43,2.78,3.44,2.78,1.83,0,2.81-.95,3.3-1.72l-.46-.69" fill="#14487e"/><path d="M2.72,54.09l-1.55,3.21H0c1.35-2.52,2.67-5.1,3.93-7.65h1.32c.86,2.55,1.83,5.1,2.75,7.65h-1.15c-.32-1.09-.72-2.15-1.12-3.21H2.72Zm2.81-.75l-1.03-2.92-1.49,2.92h2.52Z" fill="#14487e"/><path d="M12.84,56.16h0c-.41,.81-1.27,1.31-2.18,1.26-1.35,0-2.41-.92-2.41-2.64s1.09-3.3,3.44-3.3c.42,0,.85,.03,1.26,.11,.03-.69,.03-1.2,.03-1.95h1c-.14,2.55-.26,5.1-.29,7.65h-.95l.09-1.15Zm-1.15-3.96c-1.78,0-2.44,1.46-2.44,2.55s.57,1.95,1.72,1.95c1,0,1.61-.77,1.81-1.69s.11-1.81,.17-2.67c-.41-.1-.84-.15-1.26-.14h0Z" fill="#14487e"/><path d="M20.58,51.63c-.86,1.89-1.75,3.76-2.55,5.68h-1.09l-2.06-5.68h1.03l1.61,4.82,2.01-4.82h1.06Z" fill="#14487e"/><path d="M24.54,57.31c.11-.89,.14-2.21,.2-3.33-.75,.75-3.24,.57-3.24,1.95,0,.72,.69,.92,1.29,.92,.4,0,.8-.08,1.18-.2l-.17,.69c-.37,.07-.74,.1-1.12,.11-.83,0-2.06-.17-2.06-1.49,0-2.38,4.16-1.46,4.16-3.01,0-.69-.77-.8-1.32-.8-.72,0-1.43,.16-2.09,.46l.11-.75c.69-.18,1.41-.28,2.12-.29,1.89,0,2.18,.75,2.18,1.46,0,.86-.17,3.07-.17,4.33h-1.06v-.06Z" fill="#14487e"/><path d="M28.29,52.72h0c.49-.92,1.29-1.23,2.29-1.23,1.2,0,2.15,.46,2.15,1.78,0,.4-.14,3.1-.17,4.01h-1c.06-.69,.17-2.69,.17-3.67s-.6-1.35-1.55-1.35c-.92-.03-1.73,.61-1.89,1.52-.23,1-.23,2.92-.23,3.5h-1.03c.14-1.89,.26-3.78,.29-5.68h.97v1.12Z" fill="#14487e"/><path d="M38.24,52.49c-.51-.19-1.06-.29-1.61-.29-1.32,0-1.95,1.09-1.95,2.41s.69,2.09,2.04,2.09c.46-.01,.91-.1,1.35-.26l-.14,.8c-.48,.11-.97,.17-1.46,.17-1.78,0-2.75-1.03-2.75-2.78s.86-3.15,2.92-3.15c.53-.01,1.05,.07,1.55,.23l.06,.77Z" fill="#14487e"/><path d="M40.48,51.63c-.14,1.89-.2,3.78-.23,5.68h-1.06c.14-1.89,.23-3.78,.26-5.68h1.03Zm-1-1.18l.03-.8h1.09l-.03,.8h-1.09Z" fill="#14487e"/><path d="M43,52.72h0c.49-.92,1.29-1.23,2.29-1.23,1.2,0,2.15,.46,2.15,1.78,0,.4-.14,3.1-.17,4.01h-1c.06-.69,.17-2.69,.17-3.67s-.6-1.35-1.55-1.35c-.92-.03-1.73,.61-1.89,1.52-.23,1-.23,2.92-.23,3.5h-1.03c.14-1.89,.26-3.78,.29-5.68h.97v1.12Z" fill="#14487e"/><path d="M48.96,58.91c.7,.25,1.44,.38,2.18,.4,.97,0,1.55-.23,1.81-1.09,.17-.63,.14-1.46,.17-2.09l-.03-.03c-.4,.89-1.23,1.29-2.18,1.29-1.55,0-2.47-.95-2.47-2.49,0-1.43,.66-3.41,3.7-3.41,.72,.02,1.44,.1,2.15,.23-.11,1.35-.17,1.63-.29,5.93-.03,1.35-.6,2.35-2.72,2.35-.76,0-1.53-.09-2.26-.29l-.06-.8Zm3.12-6.71c-2.52,0-2.67,2.18-2.67,2.55,0,1.15,.57,1.92,1.78,1.92,.92,0,1.55-.57,1.83-1.43,.26-.75,.2-2.15,.26-2.92-.4-.07-.8-.1-1.2-.11Z" fill="#14487e"/><path d="M59.05,56.36c.51,.22,1.05,.35,1.61,.37,.49,0,1.15-.14,1.15-.75,0-1.06-2.35-1.72-2.35-3.07,0-.83,.63-1.43,1.95-1.43,.46,0,.92,.05,1.38,.14l.06,.8c-.42-.16-.87-.23-1.32-.23-.49,0-1.06,.11-1.06,.66,0,1.03,2.35,1.69,2.35,3.12,0,1.06-1.09,1.43-1.98,1.43-.56,0-1.12-.08-1.66-.23l-.11-.83Z" fill="#14487e"/><path d="M68.28,52.49c-.51-.19-1.06-.29-1.61-.29-1.32,0-1.95,1.09-1.95,2.41s.69,2.09,2.04,2.09c.46-.01,.91-.1,1.35-.26l-.14,.8c-.48,.11-.97,.17-1.46,.17-1.78,0-2.75-1.03-2.75-2.78s.86-3.15,2.92-3.15c.53-.01,1.05,.07,1.55,.23l.06,.77Z" fill="#14487e"/><path d="M70.58,51.63c-.14,1.89-.2,3.78-.23,5.68h-1.06c.14-1.89,.23-3.78,.26-5.68h1.03Zm-1-1.18l.03-.8h1.09l-.03,.8h-1.09Z" fill="#14487e"/><path d="M72.67,54.35v.32c0,1.32,.83,2.06,2.12,2.06,.6-.03,1.19-.14,1.75-.34l-.17,.83c-.56,.15-1.14,.22-1.72,.23-2.35,0-2.95-1.43-2.95-2.84,0-1.75,.97-3.1,2.84-3.1,1.49,0,2.47,.77,2.47,2.32,0,.17,0,.34-.03,.52h-4.3Zm3.41-.6c0-.95-.43-1.66-1.46-1.66s-1.72,.66-1.89,1.66h3.35Z" fill="#14487e"/><path d="M79.18,52.72h0c.49-.92,1.29-1.23,2.29-1.23,1.2,0,2.15,.46,2.15,1.78,0,.4-.14,3.1-.17,4.01h-1c.06-.69,.17-2.69,.17-3.67s-.6-1.35-1.55-1.35c-.92-.03-1.73,.61-1.89,1.52-.23,1-.23,2.92-.23,3.5h-.97c.14-1.89,.26-3.78,.29-5.68h.97l-.06,1.12Z" fill="#14487e"/><path d="M89.13,52.49c-.51-.19-1.06-.29-1.61-.29-1.32,0-1.95,1.09-1.95,2.41s.69,2.09,2.04,2.09c.46-.01,.91-.1,1.35-.26l-.14,.8c-.48,.11-.97,.17-1.46,.17-1.78,0-2.75-1.03-2.75-2.78s.86-3.15,2.92-3.15c.53-.01,1.05,.07,1.55,.23l.06,.77Z" fill="#14487e"/><path d="M90.73,54.35v.32c0,1.32,.83,2.06,2.12,2.06,.6-.03,1.19-.14,1.75-.34l-.17,.83c-.56,.15-1.14,.22-1.72,.23-2.35,0-2.95-1.43-2.95-2.84,0-1.75,.97-3.1,2.84-3.1,1.49,0,2.47,.77,2.47,2.32,0,.17,0,.34-.03,.52h-4.3Zm3.41-.6c0-.95-.43-1.66-1.46-1.66s-1.72,.66-1.89,1.66h3.35Z" fill="#14487e"/><path d="M99.53,52.35l.03-.72h.75c0-1.35,.09-2.18,1.69-2.18,.37,0,.73,.05,1.09,.14l.06,.75c-.34-.11-.7-.17-1.06-.17-.89,0-.89,.69-.89,1.49h1.55l-.06,.72h-1.52c-.03,2.09-.11,3.24-.14,4.96h-1.03c.11-1.66,.17-3.33,.23-4.96h-.69v-.03Z" fill="#14487e"/><path d="M108.65,54.3c0,1.49-.75,3.15-2.98,3.15-1.72,0-2.84-1.09-2.84-2.81,0-1.86,1.12-3.1,3.01-3.1,1.72-.03,2.81,1,2.81,2.75Zm-4.84,.34c0,1.18,.57,2.06,1.89,2.06,1.46,0,2.01-1.15,2.01-2.44s-.6-2.06-1.92-2.06-1.98,1.06-1.98,2.44h0Z" fill="#14487e"/><path d="M110.71,52.55h0c.31-.66,.99-1.07,1.72-1.03,.15,0,.31,.02,.46,.06l.03,.83c-.21-.06-.42-.09-.63-.09-.95,0-1.43,.75-1.55,1.58-.11,1.13-.15,2.27-.11,3.41h-1c.09-1.63,.2-3.3,.2-5.68h.95l-.06,.92Z" fill="#14487e"/><path d="M118.8,49.65c-.17,2.49-.26,5.1-.34,7.65h-1.03c.17-2.55,.29-5.1,.34-7.65h1.03Z" fill="#14487e"/><path d="M121.32,51.63c-.14,1.89-.2,3.78-.23,5.68h-1.06c.14-1.89,.23-3.78,.26-5.68h1.03Zm-1-1.18l.03-.8h1.09l-.03,.8h-1.09Z" fill="#14487e"/><path d="M122.41,52.35l.03-.72h.75c0-1.35,.09-2.18,1.69-2.18,.37,0,.73,.05,1.09,.14l.06,.75c-.34-.11-.7-.17-1.06-.17-.89,0-.89,.69-.89,1.49h1.55l-.06,.72h-1.52c-.03,2.09-.11,3.24-.14,4.96h-1.03c.11-1.66,.17-3.33,.23-4.96h-.69v-.03Z" fill="#14487e"/><path d="M126.91,54.35v.32c0,1.32,.83,2.06,2.12,2.06,.6-.03,1.19-.14,1.75-.34l-.17,.83c-.56,.15-1.14,.22-1.72,.23-2.35,0-2.95-1.43-2.95-2.84,0-1.75,.97-3.1,2.84-3.1,1.49,0,2.47,.77,2.47,2.32,0,.17,0,.34-.03,.52h-4.3Zm3.41-.6c0-.95-.43-1.66-1.46-1.66s-1.72,.66-1.89,1.66h3.35Z" fill="#14487e"/><path d="M132.76,52.29c.03-.77,.09-1.58,.09-2.35h-.86l.03-.37h2.24l-.03,.37h-.86c-.03,.77-.06,1.58-.09,2.35h-.52Zm4.47,0c.03-.75,.03-1.52,.03-2.26h0c-.32,.75-.63,1.52-.92,2.26h-.6c-.2-.75-.43-1.52-.63-2.26h0c-.06,.75-.11,1.52-.14,2.26h-.46c.09-.92,.14-1.81,.17-2.72h.83c.17,.72,.4,1.46,.6,2.18,.32-.72,.63-1.46,.89-2.18h.75c-.03,.92-.03,1.81-.03,2.72h-.49Z" fill="#14487e"/></g></g></svg>