<?xml version="1.0" encoding="utf-8"?>
<!-- Generator: Adobe Illustrator 25.4.1, SVG Export Plug-In . SVG Version: 6.00 Build 0)  -->
<svg version="1.1" id="Layer_1" xmlns="http://www.w3.org/2000/svg" xmlns:xlink="http://www.w3.org/1999/xlink" x="0px" y="0px"
	 viewBox="0 0 163.9 115" style="enable-background:new 0 0 163.9 115;" xml:space="preserve">
<style type="text/css">
	.st0{fill:#7A0019;}
	.st1{fill:#231F20;}
	.st2{enable-background:new    ;}
</style>
<polygon class="st0" points="96.3,22.2 90.6,12.6 92.2,12.6 92.2,7.6 82.6,7.6 82.6,12.6 84.1,12.6 81.9,16.3 79.7,12.6 81.3,12.6 
	81.3,7.6 71.7,7.6 71.7,12.6 73.3,12.6 67.6,22.2 65.5,22.2 65.5,27.2 75.3,27.2 75.3,22.2 73.5,22.2 76.5,17.2 77.7,19.1 
	76.6,19.1 76.6,24.1 87.3,24.1 87.3,19.1 86.2,19.1 87.4,17.2 90.4,22.2 88.6,22.2 88.6,27.2 98.4,27.2 98.4,22.2 "/>
<rect x="7.2" y="74" class="st1" width="149.5" height="0.5"/>
<g>
	<path class="st1" d="M150.3,84.3l0.1,1.8h-0.2c-0.2-1.2-0.5-1.4-2.1-1.4v5.5c-0.1,0.4,0.2,0.9,0.7,0.9c0.1,0,0.2,0,0.2,0v0.3h-2.9
		v-0.3c0.4,0.1,0.9-0.2,0.9-0.7c0-0.1,0-0.2,0-0.2v-5.5c-1.6,0-1.9,0.2-2.1,1.4h-0.2v-1.8L150.3,84.3z"/>
	<path class="st1" d="M140.8,84.1c-1.8,0-3.2,1.5-3.2,3.7s1.4,3.7,3.2,3.7s3.2-1.4,3.2-3.7S142.5,84.1,140.8,84.1z M140.8,91.1
		c-1.3,0-2.1-1.3-2.1-3.3s0.8-3.3,2.1-3.3s2.1,1.3,2.1,3.3S142.1,91.2,140.8,91.1L140.8,91.1z"/>
	<path class="st1" d="M155.9,90.6c-0.1-0.3-2.5-6.4-2.5-6.4h-0.2c0,0-2.1,5.6-2.4,6.2s-0.6,0.8-0.8,0.8v0.3h2v-0.3
		c-0.3,0-0.6-0.2-0.6-0.5c0-0.1,0-0.2,0-0.3l0.5-1.3h2.5c0.2,0.7,0.4,1.2,0.4,1.2c0,0.1,0.1,0.2,0.1,0.3c0,0.3-0.2,0.5-0.6,0.5v0.3
		h2.5v-0.3C156.4,91.2,156.1,90.9,155.9,90.6z M152,88.6c0.5-1.3,1.1-2.9,1.1-2.9l1.1,2.9H152z"/>
	<path class="st1" d="M130.4,89.6c-0.2,0.8-1,1.4-1.9,1.4h-1.1c-0.4,0-0.6-0.2-0.6-0.5V88h1.5c0.6,0,0.9,0.3,1,1h0.2v-2.5h-0.3
		c0,0.7-0.4,1-0.9,1h-1.6v-2.4c0-0.3,0.2-0.3,0.4-0.3h1.4c0.9,0,1.2,0.3,1.4,1.2h0.3l-0.1-1.6h-5.2v0.3c0.6,0,0.9,0.3,0.9,0.9v4.8
		c0,0.6-0.3,0.9-0.9,0.9v0.3h5.3l0.5-1.9L130.4,89.6z"/>
	<path class="st1" d="M135.9,84.1l0.2,2.4h-0.3c-0.4-1.2-0.9-1.9-1.8-1.9c-0.5-0.1-0.9,0.3-1,0.8c0,0.1,0,0.1,0,0.2
		c0,0.6,0.5,1,1,1.4l1.1,0.8c0.6,0.4,1,1.1,1.1,1.8c0,1.1-0.9,2-2,2c-0.7,0-1.1-0.3-1.5-0.3c-0.2,0-0.3,0.2-0.3,0.3h-0.2l-0.3-2.4
		h0.3c0.4,1.2,1.1,1.9,2,1.9c0.6,0,1.1-0.5,1.2-1.1c0,0,0-0.1,0-0.1c0-0.5-0.3-1-0.8-1.3l-1.4-1c-0.6-0.4-0.9-1-0.9-1.7
		c-0.1-0.9,0.7-1.8,1.6-1.8c0.1,0,0.1,0,0.2,0c0.5,0,1,0.3,1.3,0.3c0.2,0,0.3-0.1,0.3-0.3c0,0,0,0,0,0L135.9,84.1z"/>
	<path class="st1" d="M121.6,84.3v0.3c0.6,0,0.9,0.4,0.9,1.1v3.8l-3.7-5.1h-1.6v0.3c0.3,0,0.5,0.1,0.7,0.3l0.2,0.3V90
		c0,0.8-0.3,1.2-0.9,1.2v0.3h2.3v-0.3c-0.6,0-0.9-0.4-0.9-1v-4.4l4.3,5.8h0.2v-5.8c0-0.9,0.4-1.2,0.9-1.2v-0.2H121.6z"/>
	<path class="st1" d="M113.6,84.3v0.3c0.6,0,0.9,0.4,0.9,1.1v3.8l-3.7-5.1h-1.6v0.3c0.3,0,0.5,0.1,0.7,0.3l0.2,0.3V90
		c0,0.8-0.3,1.2-0.9,1.2v0.3h2.3v-0.3c-0.6,0-0.9-0.4-0.9-1v-4.4l4.3,5.8h0.2v-5.8c0-0.9,0.4-1.2,0.9-1.2v-0.2H113.6z"/>
	<path class="st1" d="M104,82.2V82h-2.2l-2.9,7.8L96,82h-2.3v0.3c1,0,1.2,0.5,1.2,1.4v5.8c0,1.3-0.4,1.7-1.2,1.7v0.3h2.9v-0.3
		c-0.8,0-1.2-0.3-1.2-1.7v-6.1l3,8.1h0.3l3.1-8.2v6.2c0,1.3-0.3,1.7-1.2,1.7v0.3h3.3v-0.3c-0.8,0-1.1-0.3-1.1-1.7v-6
		C102.9,82.5,103.4,82.2,104,82.2z"/>
	<path class="st1" d="M106.7,85.5c-0.1-0.5,0.3-0.9,0.7-0.9c0.1,0,0.2,0,0.2,0v-0.3h-2.9v0.3c0.4-0.1,0.9,0.2,0.9,0.7
		c0,0.1,0,0.2,0,0.2v4.8c0.1,0.4-0.2,0.9-0.7,0.9c-0.1,0-0.2,0-0.2,0v0.3h2.9v-0.3c-0.5,0.1-0.9-0.3-0.9-0.7c0-0.1,0-0.2,0-0.2
		C106.7,90.3,106.7,85.5,106.7,85.5z"/>
	<path class="st1" d="M80.3,84.2c-1.8,0-3.2,1.5-3.2,3.7s1.4,3.7,3.2,3.7s3.2-1.5,3.2-3.7S82,84.2,80.3,84.2z M80.3,91.2
		c-1.3,0-2.1-1.3-2.1-3.3s0.8-3.3,2.1-3.3c1.3,0,2.1,1.3,2.1,3.3S81.6,91.2,80.3,91.2L80.3,91.2z"/>
	<path class="st1" d="M89.7,84.3h-5.2v0.3c0.6,0,0.9,0.3,0.9,0.9v4.8c0,0.6-0.3,0.9-0.9,0.9v0.3h2.8v-0.3c-0.4,0.1-0.9-0.2-0.9-0.7
		c0-0.1,0-0.2,0-0.2V88h1.5c0.6,0,0.9,0.3,1,1h0.2v-2.5h-0.3c0,0.7-0.4,1-0.9,1h-1.5v-2.4c0-0.3,0.2-0.3,0.4-0.3h1.4
		c0.8,0,1.2,0.3,1.3,1.2h0.2L89.7,84.3z"/>
	<path class="st1" d="M65.7,84.3l0.1,1.8h-0.2c-0.2-1.2-0.5-1.4-2.1-1.4v5.5c-0.1,0.5,0.3,0.9,0.7,0.9c0.1,0,0.2,0,0.2,0v0.3h-2.9
		v-0.3c0.4,0.1,0.9-0.2,0.9-0.7c0-0.1,0-0.2,0-0.2v-5.5c-1.6,0-1.8,0.2-2.1,1.4h-0.2v-1.8L65.7,84.3z"/>
	<path class="st1" d="M71.2,84.6v-0.3h2.2v0.3c-0.4,0.1-0.8,0.3-1,0.7c-0.2,0.4-1.8,3-1.8,3v2c0,0.7,0.2,0.9,1,0.9v0.3h-3v-0.3
		c0.8,0,1-0.2,1-0.9v-2c0,0-1.7-2.7-1.9-3c-0.2-0.4-0.6-0.6-1-0.7v-0.3h2.8v0.3c-0.4,0-0.7,0.2-0.7,0.4c0,0.1,0.1,0.3,0.1,0.4
		c0,0.1,1.4,2.4,1.4,2.4l1.4-2.5c0-0.1,0.1-0.1,0.1-0.2C71.9,84.8,71.8,84.6,71.2,84.6z"/>
	<path class="st1" d="M54.3,84.1l0.2,2.4h-0.3c-0.3-1.2-1-1.9-1.8-1.9c-0.5-0.1-0.9,0.3-1,0.8c0,0.1,0,0.1,0,0.2c0,0.6,0.5,1,1,1.4
		l1.2,0.8c0.6,0.4,1,1.1,1,1.8c0,1.1-0.9,2-2,2c-0.7,0-1.2-0.3-1.5-0.3c-0.2,0-0.3,0.2-0.3,0.3h-0.2l-0.3-2.4h0.3
		c0.4,1.2,1.1,1.9,2,1.9c0.6,0,1.1-0.5,1.2-1.1c0,0,0-0.1,0-0.1c0-0.5-0.3-1-0.8-1.3l-1.4-1c-0.6-0.4-0.9-1-0.9-1.7
		c-0.1-0.9,0.7-1.8,1.6-1.8c0.1,0,0.1,0,0.2,0c0.5,0,1,0.3,1.3,0.3c0.2,0,0.3-0.1,0.3-0.3c0,0,0,0,0,0L54.3,84.1z"/>
	<path class="st1" d="M58.2,85.5c-0.1-0.5,0.3-0.9,0.7-0.9c0.1,0,0.2,0,0.2,0v-0.3h-2.9v0.3c0.5-0.1,0.9,0.3,0.9,0.7
		c0,0.1,0,0.2,0,0.2v4.8c0.1,0.5-0.3,0.9-0.7,0.9c-0.1,0-0.2,0-0.2,0v0.3h3v-0.3c-0.4,0.1-0.9-0.2-1-0.6c0-0.1,0-0.2,0-0.3V85.5z"/>
	<path class="st1" d="M41.8,89.6c-0.2,0.8-1,1.4-1.9,1.4h-1.1c-0.4,0-0.6-0.2-0.6-0.5V88h1.5c0.6,0,0.9,0.3,1,1H41v-2.5h-0.3
		c0,0.7-0.4,1-0.9,1h-1.6v-2.4c0-0.3,0.2-0.3,0.4-0.3h1.4c0.9,0,1.2,0.3,1.3,1.2h0.2l-0.1-1.6h-5.2v0.3c0.6,0,0.9,0.3,0.9,0.9v4.8
		c0,0.6-0.3,0.9-0.9,0.9v0.3h5.3l0.5-1.9L41.8,89.6z"/>
	<path class="st1" d="M48.6,90.9c-0.2-0.2-1.8-2.4-2.1-2.9c1.3-0.2,1.7-0.9,1.7-1.9c0-1.1-0.8-1.9-2.4-1.9H43v0.3
		c0.6,0,0.9,0.3,0.9,0.9v4.8c0,0.6-0.3,0.9-0.9,0.9v0.3h2.8v-0.3c-0.6,0-0.9-0.3-0.9-0.9v-2.1h0.5l2.3,3.3h1.6v-0.2
		C49,91.2,48.8,91.1,48.6,90.9z M44.9,87.8v-2.5c0-0.5,0.1-0.6,0.7-0.6c1.2,0,1.7,0.6,1.7,1.5c0,1.1-0.8,1.6-2,1.6
		C45.2,87.8,44.9,87.8,44.9,87.8z"/>
	<path class="st1" d="M26.5,85.5c-0.1-0.4,0.2-0.9,0.7-0.9c0.1,0,0.2,0,0.2,0v-0.3h-2.9v0.3c0.4-0.1,0.9,0.2,0.9,0.7
		c0,0.1,0,0.2,0,0.2v4.8c0.1,0.4-0.2,0.9-0.7,0.9c-0.1,0-0.2,0-0.2,0v0.3h2.9v-0.3c-0.4,0.1-0.9-0.2-0.9-0.7c0-0.1,0-0.2,0-0.2V85.5
		z"/>
	<path class="st1" d="M31.3,84.5v-0.3h-2.6v0.3c0.3,0,0.7,0.2,0.9,0.8l2.6,6.3h0.2c0,0,2.1-5.8,2.3-6.3s0.5-0.8,0.8-0.8v-0.3h-2v0.3
		c0.5,0,0.7,0.2,0.7,0.6c0,0.1,0,0.2-0.1,0.3l-1.5,4.2l-1.8-4.3c0-0.1-0.1-0.2-0.1-0.3C30.6,84.7,30.8,84.5,31.3,84.5z"/>
	<path class="st1" d="M7.2,82.2c0.8,0,1.2,0.4,1.2,1.5v4.4c-0.2,1.7,1,3.2,2.7,3.4c0.2,0,0.5,0,0.7,0c1.7,0.1,3.1-1.1,3.3-2.8
		c0-0.2,0-0.3,0-0.5v-4.8c0-0.8,0.2-1.2,1.1-1.2V82h-2.8v0.3c0.8,0,1.1,0.3,1.2,1.3c0,1,0.1,3.5,0.1,5c0.1,1.3-1,2.4-2.3,2.5
		c-0.1,0-0.2,0-0.3,0c-1.3,0.1-2.5-0.9-2.5-2.2c0-0.1,0-0.3,0-0.4v-5c0-0.7,0.3-1.2,1.1-1.2v-0.3H7.2V82.2z"/>
	<path class="st1" d="M20.8,84.3v0.3c0.6,0,0.9,0.4,0.9,1.1v3.8L18,84.3h-1.6v0.3c0.3,0,0.5,0.1,0.7,0.3l0.2,0.3V90
		c0,0.8-0.3,1.2-0.9,1.2v0.3h2.3v-0.3c-0.6,0-0.9-0.4-0.9-1v-4.4l4.3,5.8h0.2v-5.8c0-0.9,0.4-1.2,0.9-1.2v-0.2H20.8z"/>
</g>
<g>
	<path class="st0" d="M26.3,98.9H29c2.4-0.2,4.5,1.6,4.6,4c0.2,2.4-1.6,4.5-4,4.6c-0.2,0-0.4,0-0.6,0h-2.7
		C26.3,107.6,26.3,98.9,26.3,98.9z M28.9,106c1.5,0,2.8-1.2,2.8-2.8s-1.2-2.8-2.8-2.8h-0.8v5.5C28.1,106,28.9,106,28.9,106z"/>
	<path class="st0" d="M35.2,102.1h1.7v1c0.2-0.7,0.9-1.1,1.6-1.1c0.3,0,0.6,0.1,0.8,0.2l-0.6,1.6c-0.2-0.1-0.4-0.2-0.7-0.2
		c-0.8,0-1.2,0.4-1.2,1.5v2.4h-1.7V102.1z"/>
	<path class="st0" d="M40.6,100.1c0-0.6,0.5-1.1,1.1-1.1s1.1,0.5,1.1,1.1s-0.5,1.1-1.1,1.1l0,0C41.1,101.2,40.6,100.8,40.6,100.1
		C40.6,100.1,40.6,100.1,40.6,100.1z M40.9,102.1h1.7v5.4h-1.7V102.1z"/>
	<path class="st0" d="M44,102.1h1.9l0.8,1.7c0.2,0.5,0.3,0.9,0.4,1.4c0.1-0.5,0.2-1,0.4-1.4l0.7-1.6h1.7l-2.9,5.6H47L44,102.1z"/>
	<path class="st0" d="M54.2,106.2c0.5,0,1-0.2,1.4-0.4l1,1.1c-0.6,0.6-1.5,0.8-2.3,0.8c-2,0-3.2-1.2-3.2-2.9c0-1.6,1.3-2.8,2.9-2.8
		c0,0,0.1,0,0.1,0c2,0,3,1.4,2.9,3.3h-4.2C52.9,105.9,53.5,106.3,54.2,106.2z M55.2,104.4c0-0.6-0.4-1-1-1c0,0-0.1,0-0.1,0
		c-0.6-0.1-1.2,0.4-1.3,1H55.2z"/>
	<path class="st0" d="M58.7,102.1h1.7v0.9c0.3-0.6,1-1,1.7-1c1.2,0,2,0.9,2,2.4v3.1h-1.7v-3c0.1-0.5-0.2-0.9-0.7-0.9
		c-0.1,0-0.1,0-0.2,0c-0.5-0.1-1,0.3-1.1,0.9c0,0.1,0,0.1,0,0.2v2.9h-1.7C58.7,107.6,58.7,102.1,58.7,102.1z"/>
	<path class="st0" d="M70.1,105.5v-2h-0.8v-1.4h0.8v-2.8h1.7v2.8h1.4v1.4h-1.4v2c0,0.6,0.2,0.7,0.4,0.7c0.2,0,0.4-0.1,0.6-0.2
		l0.7,1.2c-0.4,0.3-1,0.5-1.5,0.5C70.9,107.7,70.1,107.1,70.1,105.5z"/>
	<path class="st0" d="M74.8,104.8c-0.1-1.7,1.2-3.1,2.8-3.2s3.1,1.2,3.2,2.8c0.1,1.7-1.2,3.1-2.8,3.2c-0.1,0-0.1,0-0.2,0
		c-1.6,0.1-2.9-1.1-3-2.7C74.8,104.9,74.8,104.9,74.8,104.8z M79,104.8c0.1-0.7-0.4-1.3-1.1-1.4c-0.1,0-0.1,0-0.2,0
		c-0.8-0.1-1.4,0.5-1.5,1.2c-0.1,0.8,0.5,1.4,1.2,1.5s1.4-0.5,1.5-1.2C79,104.9,79,104.9,79,104.8z"/>
	<path class="st0" d="M86.2,98.9h2.7c2.4-0.2,4.5,1.6,4.6,4s-1.6,4.5-4,4.6c-0.2,0-0.4,0-0.6,0h-2.7C86.2,107.6,86.2,98.9,86.2,98.9
		z M88.8,106c1.5,0,2.8-1.2,2.8-2.8s-1.2-2.8-2.8-2.8l0,0H88v5.5C88,106,88.8,106,88.8,106z"/>
	<path class="st0" d="M95.2,100.1c0-0.6,0.5-1.1,1.1-1.1s1.1,0.5,1.1,1.1s-0.5,1.1-1.1,1.1l0,0C95.7,101.2,95.2,100.8,95.2,100.1
		C95.2,100.1,95.2,100.1,95.2,100.1z M95.4,102.1h1.7v5.4h-1.7V102.1z"/>
	<path class="st0" d="M98.8,106.6l1-0.9c0.4,0.4,0.9,0.6,1.4,0.6c0.6,0,0.7-0.1,0.7-0.3s-0.3-0.3-1.2-0.5c-0.9-0.1-1.6-0.8-1.6-1.7
		c0-1.2,1-1.7,2.1-1.7c0.7,0,1.5,0.2,2,0.8l-0.9,1c-0.3-0.3-0.7-0.4-1.1-0.4c-0.4,0-0.6,0.1-0.6,0.3s0.3,0.3,1.1,0.5
		s1.8,0.6,1.8,1.7s-0.5,1.8-2.2,1.8C100.4,107.7,99.4,107.4,98.8,106.6z"/>
	<path class="st0" d="M105,104.8c0-1.6,1.2-2.8,2.8-2.8c0.1,0,0.1,0,0.2,0c0.9-0.1,1.8,0.4,2.3,1.1l-1.2,1c-0.2-0.4-0.6-0.6-1.1-0.6
		c-0.7,0-1.2,0.5-1.2,1.1c0,0.1,0,0.1,0,0.2c-0.1,0.7,0.3,1.3,1,1.4c0.1,0,0.2,0,0.2,0c0.4,0,0.8-0.2,1.1-0.5l1.2,1
		c-0.6,0.7-1.4,1-2.3,1c-1.6,0.1-2.9-1.1-3-2.6C105,104.9,105,104.9,105,104.8z"/>
	<path class="st0" d="M111.6,104.8c-0.1-1.7,1.2-3.1,2.8-3.2s3.1,1.2,3.2,2.8c0.1,1.7-1.2,3.1-2.8,3.2c-0.1,0-0.1,0-0.2,0
		c-1.6,0.1-2.9-1.1-3-2.7C111.6,104.9,111.6,104.9,111.6,104.8z M115.9,104.8c0.1-0.7-0.4-1.3-1.1-1.4s-1.3,0.4-1.4,1.1
		c0,0.1,0,0.2,0,0.3c-0.1,0.7,0.4,1.3,1.1,1.4s1.3-0.4,1.4-1.1C115.9,105.1,115.9,104.9,115.9,104.8z"/>
	<path class="st0" d="M118.5,102.1h1.9l0.8,1.6c0.2,0.5,0.3,0.9,0.4,1.4c0.1-0.5,0.2-0.9,0.4-1.4l0.7-1.6h1.7l-2.9,5.6h-0.2
		L118.5,102.1z"/>
	<path class="st0" d="M128.6,106.2c0.5,0,1-0.2,1.4-0.4l1,1.1c-0.6,0.6-1.5,0.8-2.3,0.8c-1.9,0-3.2-1.2-3.2-2.8
		c0-1.6,1.3-2.8,2.9-2.8c0,0,0.1,0,0.1,0c2,0,3,1.4,2.9,3.3h-4.1C127.5,105.9,128,106.3,128.6,106.2z M129.6,104.4c0-0.6-0.4-1-1-1
		c0,0-0.1,0-0.1,0c-0.6-0.1-1.2,0.4-1.3,1H129.6z"/>
	<path class="st0" d="M133.2,102.1h1.7v1c0.2-0.7,0.9-1.1,1.6-1.1c0.3,0,0.6,0.1,0.8,0.2l-0.6,1.6c-0.2-0.1-0.4-0.2-0.7-0.2
		c-0.8,0-1.2,0.4-1.2,1.5v2.4h-1.7L133.2,102.1L133.2,102.1z"/>
</g>
<g>
	<path class="st0" d="M140.7,101.2c0.2,0.1,0.4,0.2,0.5,0.3c0.1,0.1,0.2,0.3,0.3,0.5c0.1,0.2,0.2,0.4,0.2,0.7c0,0.3-0.1,0.5-0.2,0.8
		c-0.1,0.2-0.3,0.4-0.6,0.6c-0.2,0.1-0.5,0.2-0.8,0.2c-0.3,0-0.5-0.1-0.8-0.2c-0.2-0.1-0.4-0.3-0.6-0.6c-0.1-0.2-0.2-0.5-0.2-0.8
		c0-0.2,0-0.4,0.1-0.6c0.1-0.2,0.2-0.4,0.3-0.5c0.1-0.1,0.3-0.2,0.4-0.3c0.2-0.1,0.4-0.1,0.6-0.1
		C140.4,101.1,140.5,101.1,140.7,101.2z M141.8,101.9c-0.1-0.2-0.2-0.4-0.4-0.5c-0.2-0.2-0.3-0.3-0.6-0.4c-0.2-0.1-0.5-0.2-0.7-0.2
		c-0.3,0-0.5,0.1-0.8,0.2c-0.2,0.1-0.4,0.2-0.5,0.4c-0.2,0.2-0.3,0.3-0.4,0.6c-0.1,0.2-0.1,0.5-0.1,0.7c0,0.3,0.1,0.6,0.2,0.9
		c0.2,0.3,0.4,0.5,0.7,0.7c0.3,0.2,0.6,0.2,0.9,0.2c0.3,0,0.6-0.1,0.8-0.2c0.2-0.1,0.4-0.2,0.5-0.4c0.2-0.2,0.3-0.4,0.4-0.6
		c0.1-0.2,0.1-0.5,0.1-0.7C142,102.4,141.9,102.1,141.8,101.9z M140.1,102.9c0.1,0,0.2,0,0.3,0c0.1,0,0.1,0.1,0.1,0.1
		c0,0.1,0,0.1,0.1,0.3c0,0.2,0,0.3,0,0.3h0.4c0-0.1,0-0.1,0-0.3c0-0.1,0-0.2,0-0.3c0-0.1,0-0.1-0.1-0.2c0-0.1-0.1-0.1-0.1-0.1
		c-0.1,0-0.1-0.1-0.2-0.1c0.1,0,0.2,0,0.2-0.1c0.1,0,0.1-0.1,0.2-0.2c0-0.1,0.1-0.2,0.1-0.3c0-0.1,0-0.2-0.1-0.3
		c0-0.1-0.1-0.1-0.2-0.2c-0.1,0-0.2-0.1-0.3-0.1c-0.1,0-0.2,0-0.4,0h-0.7v2h0.5v-0.7C139.8,102.9,140.1,102.9,140.1,102.9z
		 M140.3,102c0.1,0,0.1,0.1,0.2,0.1c0,0,0.1,0.1,0.1,0.2c0,0.1,0,0.1-0.1,0.2c0,0.1-0.1,0.1-0.2,0.1c-0.1,0-0.1,0-0.2,0h-0.3V102
		h0.3C140.2,102,140.3,102,140.3,102z"/>
</g>
<g class="st2">
	<path class="st1" d="M19.7,40c0-3.1,2.4-5.3,5.4-5.3c1.8,0,3.3,0.7,4.1,2l-0.8,0.6c-0.7-1-1.8-1.6-3.3-1.6c-2.4,0-4.2,1.9-4.2,4.3
		c0,2.5,1.8,4.3,4.2,4.3c1.5,0,2.7-0.7,3.4-1.8l0.9,0.6c-0.9,1.4-2.4,2.1-4.3,2.1C22.1,45.3,19.7,43.1,19.7,40z"/>
	<path class="st1" d="M34.1,44.4c1,0,1.6-0.4,2-0.8l0.7,0.6c-0.6,0.7-1.4,1.1-2.7,1.1c-2.1,0-3.4-1.4-3.4-3.3s1.4-3.3,3.3-3.3
		c2,0,3.3,1.6,3.2,3.7h-5.4C31.9,43.6,32.7,44.4,34.1,44.4z M36.1,41.6c-0.1-1.1-0.8-2-2.1-2c-1.2,0-2,0.8-2.2,2H36.1z"/>
	<path class="st1" d="M39,38.9h1.1l0,1.3c0.4-0.9,1.3-1.4,2.3-1.4c1.4,0,2.4,1,2.4,2.6v3.9h-1.1v-3.7c0-1.1-0.5-1.8-1.6-1.8
		c-1.2,0-2,0.8-2,2v3.5H39V38.9z"/>
	<path class="st1" d="M47.2,43.3v-3.5h-1v-0.9h1v-3.3h1.1v3.3h1.8v0.9h-1.8v3.5c0,0.8,0.3,1.1,0.8,1.1c0.4,0,0.7-0.2,0.9-0.4
		l0.6,0.7c-0.3,0.3-0.8,0.6-1.6,0.6C48,45.3,47.2,44.8,47.2,43.3z"/>
	<path class="st1" d="M55,44.4c1,0,1.6-0.4,2-0.8l0.7,0.6c-0.6,0.7-1.4,1.1-2.7,1.1c-2.1,0-3.4-1.4-3.4-3.3s1.4-3.3,3.3-3.3
		c2,0,3.3,1.6,3.2,3.7h-5.4C52.8,43.6,53.6,44.4,55,44.4z M56.9,41.6c-0.1-1.1-0.8-2-2.1-2c-1.2,0-2,0.8-2.2,2H56.9z"/>
	<path class="st1" d="M59.9,38.9h1.1l0,1.2c0.4-1,1.1-1.4,1.9-1.4c0.5,0,0.8,0.1,1.1,0.3L63.5,40c-0.2-0.1-0.5-0.2-0.9-0.2
		c-0.9,0-1.6,0.6-1.6,2.1v3.3h-1.1V38.9z"/>
	<path class="st1" d="M69.4,39.8h-1v-0.9h1V36c0-1.4,0.7-2,1.8-2c0.8,0,1.3,0.3,1.6,0.8l-0.7,0.6c-0.2-0.3-0.4-0.4-0.8-0.4
		c-0.5,0-0.8,0.3-0.8,1.1v2.9h1.7v0.9h-1.7v5.4h-1.1V39.8z"/>
	<path class="st1" d="M73.2,42c0-1.9,1.5-3.3,3.4-3.3c1.9,0,3.3,1.5,3.3,3.3s-1.5,3.3-3.3,3.3C74.7,45.3,73.2,43.9,73.2,42z
		 M78.9,42c0-1.4-0.9-2.4-2.3-2.4c-1.4,0-2.3,1-2.3,2.4s0.9,2.4,2.3,2.4C78,44.4,78.9,43.4,78.9,42z"/>
	<path class="st1" d="M81.8,38.9h1.1l0,1.2c0.4-1,1.1-1.4,1.9-1.4c0.5,0,0.8,0.1,1.1,0.3L85.4,40c-0.2-0.1-0.5-0.2-0.9-0.2
		c-0.9,0-1.6,0.6-1.6,2.1v3.3h-1.1V38.9z"/>
	<path class="st1" d="M91.3,34.8h1.1v9.5h4.9v1h-6V34.8z"/>
	<path class="st1" d="M101.7,44.4c1,0,1.6-0.4,2-0.8l0.7,0.6c-0.6,0.7-1.4,1.1-2.7,1.1c-2.1,0-3.4-1.4-3.4-3.3s1.4-3.3,3.3-3.3
		c2,0,3.3,1.6,3.2,3.7h-5.4C99.5,43.6,100.3,44.4,101.7,44.4z M103.7,41.6c-0.1-1.1-0.8-2-2.1-2c-1.2,0-2,0.8-2.2,2H103.7z"/>
	<path class="st1" d="M110.5,41.3c0-1.2-0.6-1.7-1.5-1.7c-0.9,0-1.5,0.4-1.9,0.9l-0.7-0.6c0.6-0.8,1.4-1.2,2.6-1.2
		c1.4,0,2.5,0.8,2.5,2.6v3.9h-1.1l0-1c-0.4,0.6-1.1,1.1-2.1,1.1c-1.4,0-2.3-0.6-2.3-1.9c0-1.3,1.1-1.9,2.4-1.9h2V41.3z M108.6,42.3
		c-0.8,0-1.4,0.3-1.4,1.1c0,0.7,0.5,1.1,1.5,1.1c1,0,1.8-0.5,1.8-1.4v-0.8H108.6z"/>
	<path class="st1" d="M113.7,38.9h1.1l0,1.2c0.4-1,1.1-1.4,1.9-1.4c0.5,0,0.8,0.1,1.1,0.3l-0.4,0.9c-0.2-0.1-0.5-0.2-0.9-0.2
		c-0.9,0-1.6,0.6-1.6,2.1v3.3h-1.1V38.9z"/>
	<path class="st1" d="M119.2,38.9h1.1l0,1.3c0.4-0.9,1.3-1.4,2.3-1.4c1.4,0,2.4,1,2.4,2.6v3.9h-1.1v-3.7c0-1.1-0.5-1.8-1.6-1.8
		c-1.2,0-2,0.8-2,2v3.5h-1.1V38.9z"/>
	<path class="st1" d="M127,36.3c0-0.4,0.4-0.8,0.8-0.8c0.4,0,0.8,0.3,0.8,0.8s-0.4,0.8-0.8,0.8C127.3,37,127,36.7,127,36.3z
		 M127.2,38.9h1.1v6.4h-1.1V38.9z"/>
	<path class="st1" d="M130.6,38.9h1.1l0,1.3c0.4-0.9,1.3-1.4,2.3-1.4c1.4,0,2.4,1,2.4,2.6v3.9h-1.1v-3.7c0-1.1-0.5-1.8-1.6-1.8
		c-1.2,0-2,0.8-2,2v3.5h-1.1V38.9z"/>
	<path class="st1" d="M144.1,38.9v0.8h-1.2c0.3,0.3,0.5,0.8,0.5,1.3c0,1.3-1,2.3-2.5,2.3c-0.5,0-0.9-0.1-1.3-0.3
		c-0.3,0.1-0.5,0.3-0.5,0.6c0,0.4,0.3,0.6,0.8,0.6l1.6,0.1c1.8,0.1,2.7,0.8,2.7,2c0,1.4-1.3,2.3-3.4,2.3c-2,0-3.3-0.8-3.3-2.1
		c0-0.9,0.6-1.4,1.5-1.7c-0.6-0.2-0.9-0.6-0.9-1.2c0-0.5,0.3-1,0.9-1.2c-0.4-0.4-0.7-0.9-0.7-1.6c0-1.3,1.1-2.3,2.5-2.3
		c0.3,0,0.6,0,0.9,0.1H144.1z M138.6,46.5c0,0.8,0.7,1.3,2.2,1.3c1.4,0,2.3-0.5,2.3-1.4c0-0.7-0.4-1-1.8-1.1l-1.6-0.1
		C139.1,45.4,138.6,45.8,138.6,46.5z M142.4,41c0-0.9-0.6-1.4-1.5-1.4c-1,0-1.5,0.6-1.5,1.4c0,0.9,0.6,1.4,1.5,1.4
		C141.8,42.4,142.4,41.8,142.4,41z"/>
</g>
<g class="st2">
	<path class="st1" d="M7.5,52.8h1.1v5.9h5.6v-5.9h1.1v10.4h-1.1v-3.5H8.6v3.5H7.5V52.8z"/>
	<path class="st1" d="M20.8,62.4c1,0,1.6-0.4,2-0.8l0.7,0.6c-0.6,0.7-1.4,1.1-2.7,1.1c-2.1,0-3.4-1.4-3.4-3.3s1.4-3.3,3.3-3.3
		c2,0,3.3,1.6,3.2,3.7h-5.4C18.6,61.6,19.4,62.4,20.8,62.4z M22.7,59.6c-0.1-1.1-0.8-2-2.1-2c-1.2,0-2,0.8-2.2,2H22.7z"/>
	<path class="st1" d="M29.5,59.3c0-1.2-0.6-1.7-1.5-1.7c-0.9,0-1.5,0.4-1.9,0.9l-0.7-0.6c0.6-0.8,1.4-1.2,2.6-1.2
		c1.4,0,2.5,0.8,2.5,2.6v3.9h-1.1l0-1c-0.4,0.6-1.1,1.1-2.1,1.1c-1.4,0-2.3-0.6-2.3-1.9c0-1.3,1.1-1.9,2.4-1.9h2V59.3z M27.6,60.3
		c-0.8,0-1.4,0.3-1.4,1.1c0,0.7,0.5,1.1,1.5,1.1c1,0,1.8-0.5,1.8-1.4v-0.8H27.6z"/>
	<path class="st1" d="M32.9,52.1H34v11.1h-1.1V52.1z"/>
	<path class="st1" d="M36.7,61.3v-3.5h-1v-0.9h1v-3.3h1.1v3.3h1.8v0.9h-1.8v3.5c0,0.8,0.3,1.1,0.8,1.1c0.4,0,0.7-0.2,0.9-0.4
		l0.6,0.7c-0.3,0.3-0.8,0.6-1.6,0.6C37.4,63.3,36.7,62.8,36.7,61.3z"/>
	<path class="st1" d="M41.5,52.1h1.1v6c0.4-0.8,1.2-1.4,2.3-1.4c1.4,0,2.4,1,2.4,2.6v3.9h-1.1v-3.7c0-1.1-0.5-1.8-1.6-1.8
		c-1.2,0-2,0.8-2,2v3.5h-1.1V52.1z"/>
	<path class="st1" d="M52.3,61.2l0.9-0.5c0.5,0.9,1.2,1.6,2.7,1.6c1.2,0,2.2-0.7,2.2-1.8c0-1.1-0.7-1.6-2-2.2L55.3,58
		c-1.5-0.7-2.3-1.4-2.3-2.9c0-1.5,1.2-2.5,2.7-2.5c1.4,0,2.3,0.6,2.8,1.6l-0.9,0.6c-0.4-0.6-1-1.1-1.9-1.1c-1,0-1.7,0.6-1.7,1.5
		c0,0.9,0.5,1.3,1.7,1.9l0.8,0.4c1.7,0.8,2.6,1.6,2.6,3.2c0,1.7-1.4,2.8-3.2,2.8C54,63.3,52.9,62.3,52.3,61.2z"/>
	<path class="st1" d="M62.8,62.7l-2.7-5.8h1.2l1.8,3.9c0.2,0.4,0.3,1.1,0.3,1.1s0.1-0.7,0.3-1.1l1.7-3.9h1.1l-4.1,9.6h-1.1
		L62.8,62.7z"/>
	<path class="st1" d="M67.3,61.9l0.8-0.5c0.4,0.6,0.9,1.1,1.8,1.1c0.9,0,1.4-0.4,1.4-1c0-0.7-0.6-0.8-1.7-1.2
		c-1-0.3-1.9-0.7-1.9-1.9c0-1.1,0.9-1.7,2.1-1.7c1,0,1.7,0.4,2.1,1l-0.7,0.6c-0.3-0.4-0.8-0.7-1.4-0.7c-0.7,0-1.1,0.3-1.1,0.8
		c0,0.6,0.4,0.8,1.5,1.1c1.1,0.3,2.1,0.7,2.1,1.9c0,1.1-0.7,1.9-2.3,1.9C68.6,63.3,67.7,62.7,67.3,61.9z"/>
	<path class="st1" d="M74.4,61.3v-3.5h-1v-0.9h1v-3.3h1.1v3.3h1.8v0.9h-1.8v3.5c0,0.8,0.3,1.1,0.8,1.1c0.4,0,0.7-0.2,0.9-0.4
		l0.6,0.7c-0.3,0.3-0.8,0.6-1.6,0.6C75.2,63.3,74.4,62.8,74.4,61.3z"/>
	<path class="st1" d="M82.2,62.4c1,0,1.6-0.4,2-0.8l0.7,0.6c-0.6,0.7-1.4,1.1-2.7,1.1c-2.1,0-3.4-1.4-3.4-3.3s1.4-3.3,3.3-3.3
		c2,0,3.3,1.6,3.2,3.7h-5.4C79.9,61.6,80.8,62.4,82.2,62.4z M84.1,59.6c-0.1-1.1-0.8-2-2.1-2c-1.2,0-2,0.8-2.2,2H84.1z"/>
	<path class="st1" d="M87.1,56.9h1.1l0,1.2c0.4-0.9,1.1-1.3,2-1.3c1,0,1.6,0.5,1.9,1.3c0.5-0.9,1.3-1.3,2.2-1.3
		c1.4,0,2.3,0.9,2.3,2.4v4.1h-1.1v-3.9c0-1-0.4-1.6-1.4-1.6c-1,0-1.7,0.7-1.7,1.9v3.6h-1.1v-3.9c0-1-0.4-1.6-1.4-1.6
		c-1,0-1.7,0.7-1.7,1.9v3.6h-1.1V56.9z"/>
	<path class="st1" d="M101.6,61.2l0.9-0.5c0.5,0.9,1.2,1.6,2.7,1.6c1.2,0,2.2-0.7,2.2-1.8c0-1.1-0.7-1.6-2-2.2l-0.8-0.4
		c-1.5-0.7-2.3-1.4-2.3-2.9c0-1.5,1.2-2.5,2.7-2.5c1.4,0,2.3,0.6,2.8,1.6l-0.9,0.6c-0.4-0.6-1-1.1-1.9-1.1c-1,0-1.7,0.6-1.7,1.5
		c0,0.9,0.5,1.3,1.7,1.9l0.8,0.4c1.7,0.8,2.6,1.6,2.6,3.2c0,1.7-1.4,2.8-3.2,2.8C103.3,63.3,102.2,62.3,101.6,61.2z"/>
	<path class="st1" d="M110.1,60c0-1.9,1.4-3.3,3.3-3.3c1.1,0,1.9,0.4,2.5,1.1l-0.8,0.6c-0.4-0.5-0.9-0.8-1.7-0.8
		c-1.4,0-2.2,1-2.2,2.4s0.8,2.4,2.2,2.4c0.9,0,1.4-0.4,1.8-0.8l0.7,0.6c-0.6,0.7-1.4,1.1-2.6,1.1C111.5,63.3,110.1,61.9,110.1,60z"
		/>
	<path class="st1" d="M117.4,54.3c0-0.4,0.4-0.8,0.8-0.8s0.8,0.3,0.8,0.8s-0.4,0.8-0.8,0.8S117.4,54.7,117.4,54.3z M117.7,56.9h1.1
		v6.4h-1.1V56.9z"/>
	<path class="st1" d="M124.1,62.4c1,0,1.6-0.4,2-0.8l0.7,0.6c-0.6,0.7-1.4,1.1-2.7,1.1c-2.1,0-3.4-1.4-3.4-3.3s1.4-3.3,3.3-3.3
		c2,0,3.3,1.6,3.2,3.7h-5.4C121.9,61.6,122.7,62.4,124.1,62.4z M126.1,59.6c-0.1-1.1-0.8-2-2.1-2c-1.2,0-2,0.8-2.2,2H126.1z"/>
	<path class="st1" d="M129,56.9h1.1l0,1.3c0.4-0.9,1.3-1.4,2.3-1.4c1.4,0,2.4,1,2.4,2.6v3.9h-1.1v-3.7c0-1.1-0.5-1.8-1.6-1.8
		c-1.2,0-2,0.8-2,2v3.5H129V56.9z"/>
	<path class="st1" d="M136.5,60c0-1.9,1.4-3.3,3.3-3.3c1.1,0,1.9,0.4,2.5,1.1l-0.8,0.6c-0.4-0.5-0.9-0.8-1.7-0.8
		c-1.4,0-2.2,1-2.2,2.4s0.8,2.4,2.2,2.4c0.9,0,1.4-0.4,1.8-0.8l0.7,0.6c-0.6,0.7-1.4,1.1-2.6,1.1C137.9,63.3,136.5,61.9,136.5,60z"
		/>
	<path class="st1" d="M147,62.4c1,0,1.6-0.4,2-0.8l0.7,0.6c-0.6,0.7-1.4,1.1-2.7,1.1c-2.1,0-3.4-1.4-3.4-3.3s1.4-3.3,3.3-3.3
		c2,0,3.3,1.6,3.2,3.7h-5.4C144.8,61.6,145.6,62.4,147,62.4z M149,59.6c-0.1-1.1-0.8-2-2.1-2c-1.2,0-2,0.8-2.2,2H149z"/>
	<path class="st1" d="M151.3,61.9l0.8-0.5c0.4,0.6,0.9,1.1,1.8,1.1c0.9,0,1.4-0.4,1.4-1c0-0.7-0.6-0.8-1.7-1.2
		c-1-0.3-1.9-0.7-1.9-1.9c0-1.1,0.9-1.7,2.1-1.7c1,0,1.7,0.4,2.1,1l-0.7,0.6c-0.3-0.4-0.8-0.7-1.4-0.7c-0.7,0-1.1,0.3-1.1,0.8
		c0,0.6,0.4,0.8,1.5,1.1c1.1,0.3,2.1,0.7,2.1,1.9c0,1.1-0.7,1.9-2.3,1.9C152.6,63.3,151.7,62.7,151.3,61.9z"/>
</g>
</svg>
