<?xml version="1.0" encoding="UTF-8"?>
<svg id="one_line" data-name="one line" xmlns="http://www.w3.org/2000/svg" width="255.8" height="32" version="1.1" viewBox="0 0 255.8 32">
  <defs>
    <style>
      .cls-1 {
        fill: #000;
      }

      .cls-1, .cls-2 {
        stroke-width: 0px;
      }

      .cls-2 {
        fill: #e30613;
      }
    </style>
  </defs>
  <path class="cls-2" d="M8.6,7.2c-2.9,0-4.9,1.5-5.8,3.2v-2.8H0v17.9h2.8v-10.9c0-3.2,2.4-4.9,5-4.9s4.2,1.4,4.2,4.6v11.2h2.8v-11c0-5.2-2.6-7.2-6.3-7.2Z"/>
  <path class="cls-2" d="M27.2,7.2c-2.6,0-5,1.6-6.1,3.3v-3h-2.8v24.2h2.8v-9.2c1,1.8,3.1,3.3,6.1,3.3,4.9,0,8.2-3.8,8.2-9.3v-.3c0-5.6-3.5-9-8.2-9ZM32.4,16.6c0,4.4-1.9,6.8-5.5,6.8s-5.9-2.2-5.9-6.8v-.3c0-4.6,2.5-6.8,5.9-6.8s5.5,2.3,5.5,6.8v.3Z"/>
  <path class="cls-2" d="M38.7,26.8c0,1.6-.6,2.6-2.6,2.8v2.4c4-.1,5.5-2,5.5-5.4V7.5h-2.8v19.3Z"/>
  <path class="cls-2" d="M40.1,0c-1,0-1.9.9-1.9,1.9s.9,1.9,1.9,1.9,1.9-.9,1.9-1.9-.9-1.9-1.9-1.9Z"/>
  <rect class="cls-2" x="59" width="2" height="32"/>
  <path class="cls-1" d="M86,10.5c-2.3,0-3.9,1.2-4.5,2.5V4h-2.2v20.8h2.2v-8.5c0-2.5,1.9-3.9,3.9-3.9s3.3,1.1,3.3,3.6v8.8h2.2v-8.6c0-4.1-2-5.7-5-5.7Z"/>
  <path class="cls-1" d="M100.4,10.5c-3.9,0-6.6,3-6.6,7.2v.2c0,4.3,2.8,7.1,6.8,7.1s5.5-1.5,6-4.3h-2.2c-.3,1.6-1.6,2.5-3.7,2.5s-4.4-1.8-4.5-5h10.6v-.7c0-5-3.1-7-6.3-7ZM96.2,16.4c.4-2.5,1.9-4.1,4.2-4.1s3.8,1.2,4,4.1h-8.2Z"/>
  <path class="cls-1" d="M114.8,10.5c-2.7,0-5.3,1.2-5.6,4.4h2.2c.2-1.7,1.3-2.5,3.2-2.5s3,.9,3,3.2v1h-2c-3.6,0-7.1,1.1-7.1,4.4s2.1,4.1,4.7,4.1,3.3-.7,4.4-2v1.8h2.2v-9.3c0-3.9-2.5-5-5.1-5ZM117.7,19.9c0,2.2-1.8,3.4-4.2,3.4s-2.7-.9-2.7-2.4c0-2.1,2.1-2.8,4.9-2.8h1.9v1.8Z"/>
  <rect class="cls-1" x="123.6" y="4" width="2.3" height="20.8"/>
  <path class="cls-1" d="M132.4,21.1v-8.5h3.3v-1.9h-3.3v-3.2h-2.2v3.2h-2v1.9h2v8.7c0,2.2,1.2,3.7,3.8,3.7s1.5-.1,1.9-.3v-1.9c-.5.2-1,.3-1.7.3-1.1,0-1.8-.7-1.8-2Z"/>
  <path class="cls-1" d="M145.1,10.5c-2.3,0-3.9,1.2-4.5,2.5V4h-2.2v20.8h2.2v-8.5c0-2.5,1.9-3.9,3.9-3.9s3.3,1.1,3.3,3.6v8.8h2.2v-8.6c0-4.1-2-5.7-5-5.7Z"/>
  <path class="cls-1" d="M165.7,16.6c-2.6-.5-3.3-1-3.3-2.2s1.1-2,2.7-2,2.6.7,3,2.2h2.2c-.4-3-2.6-4.1-5.1-4.1s-4.8,1.3-4.8,4,1.2,3.5,4.9,4.1c2.2.4,3.3.9,3.3,2.4s-.9,2.2-3.1,2.2-3.2-1.1-3.3-2.7h-2.2c.1,2.9,2.2,4.6,5.5,4.6s5.2-1.7,5.2-4.3-2-3.6-5-4.2Z"/>
  <polygon class="cls-1" points="178.2 20.8 173.9 10.7 171.5 10.7 177 23.4 174.4 29.7 176.6 29.7 184.4 10.7 182.1 10.7 178.2 20.8"/>
  <path class="cls-1" d="M191.1,16.6c-2.6-.5-3.3-1-3.3-2.2s1.1-2,2.7-2,2.6.7,3,2.2h2.2c-.4-3-2.6-4.1-5.1-4.1s-4.8,1.3-4.8,4,1.2,3.5,4.9,4.1c2.2.4,3.3.9,3.3,2.4s-.9,2.2-3.1,2.2-3.2-1.1-3.3-2.7h-2.2c.1,2.9,2.2,4.6,5.5,4.6s5.2-1.7,5.2-4.3-2-3.6-5-4.2Z"/>
  <path class="cls-1" d="M201.7,21.1v-8.5h3.3v-1.9h-3.3v-3.2h-2.2v3.2h-2v1.9h2v8.7c0,2.2,1.2,3.7,3.8,3.7s1.5-.1,1.9-.3v-1.9c-.5.2-1,.3-1.7.3-1.1,0-1.8-.7-1.8-2Z"/>
  <path class="cls-1" d="M213,10.5c-3.9,0-6.6,3-6.6,7.2v.2c0,4.3,2.8,7.1,6.8,7.1s5.5-1.5,6-4.3h-2.2c-.3,1.6-1.6,2.5-3.7,2.5s-4.4-1.8-4.5-5h10.6v-.7c0-5-3.1-7-6.3-7ZM208.8,16.4c.4-2.5,1.9-4.1,4.2-4.1s3.8,1.2,4,4.1h-8.2Z"/>
  <path class="cls-1" d="M237.6,10.5c-1.8,0-3.9.8-4.8,2.6-.7-1.9-2.3-2.6-4.1-2.6s-3.6,1.1-4.2,2.4v-2.2h-2.2v14.1h2.2v-8.6c0-2.5,1.9-3.8,3.7-3.8s3,1,3,3.5v8.9h2.2v-8.6c0-2.5,1.9-3.8,3.7-3.8s3,1,3,3.5v8.9h2.2v-8.7c0-4.1-2.2-5.6-4.7-5.6Z"/>
  <path class="cls-1" d="M250.8,16.6c-2.6-.5-3.3-1-3.3-2.2s1.1-2,2.7-2,2.6.7,3,2.2h2.2c-.4-3-2.6-4.1-5.1-4.1s-4.8,1.3-4.8,4,1.2,3.5,4.9,4.1c2.2.4,3.3.9,3.3,2.4s-.9,2.2-3.1,2.2-3.2-1.1-3.3-2.7h-2.2c.1,2.9,2.2,4.6,5.5,4.6s5.2-1.7,5.2-4.3-2-3.6-5-4.2Z"/>
</svg>