<svg xmlns="http://www.w3.org/2000/svg" fill="#ffffff" viewBox="0 0 24 24">
  <path d="M24 4.56c-.89.39-1.84.66-2.84.78a4.92 4.92 0 002.15-2.71c-.95.56-2 .97-3.12 1.2a4.92 4.92 0 00-8.38 4.48A13.97 13.97 0 011.67 3.15a4.92 4.92 0 001.52 6.57 4.89 4.89 0 01-2.23-.61v.06c0 2.33 1.66 4.27 3.88 4.71a4.93 4.93 0 01-2.21.08c.62 1.94 2.43 3.35 4.58 3.4a9.87 9.87 0 01-6.1 2.1c-.4 0-.8-.02-1.2-.07a13.95 13.95 0 007.56 2.21c9.06 0 14.01-7.5 14.01-14 0-.21-.01-.42-.02-.63A10.01 10.01 0 0024 4.56z"></path>
</svg>
